<?xml version="1.0" encoding="UTF-8"?>
<svg xmlns="http://www.w3.org/2000/svg" width="182" height="36" viewBox="0 0 220 43.4"><defs><style>.cls-1{fill:#f16a24;}.cls-2{fill:#31404b;}</style></defs><title>bugcrowd-logo</title><g id="Layer_2" data-name="Layer 2"><g id="Layer_1-2" data-name="Layer 1"><g id="Layer_2-2" data-name="Layer 2"><g id="Layer_1-2-2" data-name="Layer 1-2"><path class="cls-1" d="M53.1,26.76a1.33,1.33,0,0,1-.33-.66V9H47V19.5a9.39,9.39,0,0,1-.49,3,8.88,8.88,0,0,1-1.32,2.47,6.28,6.28,0,0,1-2,1.65,7.82,7.82,0,0,1-2.8.66,2.8,2.8,0,0,1-2.15-.66,4.18,4.18,0,0,1-1.15-1.65,9.31,9.31,0,0,1-.33-2.47V11.91a3.23,3.23,0,0,0-.66-2.3A3.21,3.21,0,0,0,33.81,9H28.2v4.78H30a1.45,1.45,0,0,1,.83.17,1,1,0,0,1,.33.82v8.91a10.06,10.06,0,0,0,1,4.94A5.79,5.79,0,0,0,35,31.38a8.7,8.7,0,0,0,4.29.82,15.73,15.73,0,0,0,2.8-.33,6,6,0,0,0,2.31-1.15,18.19,18.19,0,0,0,1.82-1.49,6.82,6.82,0,0,0,1.15-1.81h.16v1.65a2.12,2.12,0,0,0,.83,1.81,3.2,3.2,0,0,0,2.31.66h5.28V26.76H54.09c-.66.16-.82.16-1,0m-33.48-3.3A4.65,4.65,0,0,1,18.3,25.6a4.63,4.63,0,0,1-1.81,1.32,3.65,3.65,0,0,1-2.31.5,4,4,0,0,1-2.47-.66,5.78,5.78,0,0,1-1.82-1.65A10.17,10.17,0,0,1,8.74,22.8a12.45,12.45,0,0,1-.33-2.64,9.93,9.93,0,0,1,.49-3.3,7.83,7.83,0,0,1,1.32-2.31A7.33,7.33,0,0,1,12,13.24a4.85,4.85,0,0,1,2.14-.33,5.63,5.63,0,0,1,3,.82,7.31,7.31,0,0,1,2,2.47,9.11,9.11,0,0,1,.66,3.8,5.83,5.83,0,0,1-.16,3.46m3.46-11.71a10.25,10.25,0,0,0-3.3-2.47,11.58,11.58,0,0,0-4.29-.83,15,15,0,0,0-2.64.33,6,6,0,0,0-1.81.66,4.56,4.56,0,0,0-1.32,1c-.33.33-.66.5-.82.83-.17,0-.17.16-.33.33h0V3.18A2.68,2.68,0,0,0,7.75.87C7.42.21,6.6-.12,5.44,0H0V4.83H1.81A1.54,1.54,0,0,1,2.64,5,1,1,0,0,1,3,5.82V31.71H8.25V29.07h0a7.9,7.9,0,0,0,1,1.15,9.44,9.44,0,0,0,1.32,1,10.44,10.44,0,0,0,2,.83,13.22,13.22,0,0,0,2.64.33,12.26,12.26,0,0,0,4.29-.83,8.4,8.4,0,0,0,3.46-2.47,12.25,12.25,0,0,0,2.31-3.8,15.66,15.66,0,0,0,.83-4.94,14.12,14.12,0,0,0-.66-4.79,12.31,12.31,0,0,0-2.31-3.79M74.71,23a8.79,8.79,0,0,1-1.16,2.14,6.57,6.57,0,0,1-1.81,1.15,8,8,0,0,1-2,.33,4.78,4.78,0,0,1-3.13-1,7.35,7.35,0,0,1-2-2.48A8,8,0,0,1,64,19.5a6.57,6.57,0,0,1,.66-3.29,4.59,4.59,0,0,1,1.81-2.15,5.68,5.68,0,0,1,3-.82,10.73,10.73,0,0,1,2.31.33,3.88,3.88,0,0,1,1.82,1,5.9,5.9,0,0,1,1.31,2,9.18,9.18,0,0,1,.5,3.29A13.24,13.24,0,0,1,74.71,23m2-13.69a2,2,0,0,0-.83.82,2.42,2.42,0,0,0-.33,1v.66h-.16a.51.51,0,0,0-.17-.33c-.16-.33-.49-.49-.82-.82a9.44,9.44,0,0,0-1.32-1,10.44,10.44,0,0,0-2-.83,15,15,0,0,0-2.8-.32,12.58,12.58,0,0,0-4.46.82,7.93,7.93,0,0,0-3.3,2.47,12.78,12.78,0,0,0-2,3.63,13.77,13.77,0,0,0-.66,4.45,12.56,12.56,0,0,0,.66,4.46,12.78,12.78,0,0,0,2,3.63,8.48,8.48,0,0,0,3.3,2.47,10.19,10.19,0,0,0,8.41.16,8.38,8.38,0,0,0,2.64-2.14H75v3.3a6.86,6.86,0,0,1-.5,2.64A3.53,3.53,0,0,1,73.06,36a5,5,0,0,1-2.14,1,12.41,12.41,0,0,1-2.48.33v4.95a28.6,28.6,0,0,0,3.63-.33,11.24,11.24,0,0,0,3.3-1.15,11,11,0,0,0,2.8-2A7.42,7.42,0,0,0,80,35.67a11,11,0,0,0,.66-4.13V14.72c.16-.33.16-.5.33-.66a1,1,0,0,1,.66-.16h1.81V9H78a1.77,1.77,0,0,0-1.32.33m49.14-.66a7.59,7.59,0,0,0-3.3.82,6.21,6.21,0,0,0-2.47,2.15,10.39,10.39,0,0,0-1.65,3h-.16v-2.8a2.81,2.81,0,0,0-.83-2.14A3.2,3.2,0,0,0,115.11,9h-5.27v4.78h1.81a1.43,1.43,0,0,1,.82.17.94.94,0,0,1,.33.82v17h5.77V22.64a7.8,7.8,0,0,1,.17-2c.16-.66.16-1.16.33-1.82a5.44,5.44,0,0,1,1.15-2.14,5.81,5.81,0,0,1,3.3-2.31,7.8,7.8,0,0,1,2-.17h1.32V8.62h-1m60.69.82a3.86,3.86,0,0,0-1.15,1.82L182.07,24c-.17.33-.17.83-.33,1.16,0,.49-.17.82-.17,1.32h-.16V26.1a7.32,7.32,0,0,1-.17-.83c-.16-.33-.16-.82-.33-1.15L176.63,9.28h-5.12l-4.28,14.84c-.17.33-.17.82-.33,1.15a7.32,7.32,0,0,1-.17.83v.33h-.16V26.1a7.32,7.32,0,0,1-.17-.83,3,3,0,0,0-.33-1.15l-3.46-12.7a2.93,2.93,0,0,0-1.16-1.81,4.08,4.08,0,0,0-2.14-.5h-4V13.9H156a1.29,1.29,0,0,1,.83.16,2.27,2.27,0,0,1,.49.66l5.61,17.15h6.6l4-13c.17-.33.17-.82.33-1.15l.17-1v-.33h.16v.33a5.88,5.88,0,0,1,.17,1c.16.33.16.82.33,1.15l4,13h6.59l5.61-17.15a2.27,2.27,0,0,1,.49-.66,1.29,1.29,0,0,1,.83-.16h.66V9h-4a4.39,4.39,0,0,0-2.31.49m24.57,14.19a7.68,7.68,0,0,1-1.32,2.3A7.13,7.13,0,0,1,208,27.25a5.07,5.07,0,0,1-2.14.5,5.64,5.64,0,0,1-3-.83,7.31,7.31,0,0,1-2-2.47,9.26,9.26,0,0,1-.66-3.79,8,8,0,0,1,.5-3A4.75,4.75,0,0,1,202,15.54a5.35,5.35,0,0,1,4.12-1.81,4,4,0,0,1,2.47.66A5.78,5.78,0,0,1,210.44,16a10.17,10.17,0,0,1,1.15,2.31,12.45,12.45,0,0,1,.33,2.64,16.77,16.77,0,0,0-.83,2.64Zm7.26,3.29a.85.85,0,0,1-.66-.33,1.25,1.25,0,0,1-.33-.66V3A2.68,2.68,0,0,0,216.54.7,3.26,3.26,0,0,0,214.23,0h-5.44V4.83h1.81c.33,0,.5,0,.66.16a1,1,0,0,1,.33.83v5.27h-.17a.52.52,0,0,0-.16-.33c-.16-.33-.49-.49-.66-.66a3.42,3.42,0,0,0-1.32-.82,9,9,0,0,0-2-.66,13.92,13.92,0,0,0-2.64-.33,12.43,12.43,0,0,0-4.28.82,7,7,0,0,0-3.3,2.48,10.85,10.85,0,0,0-2.15,3.79,15.39,15.39,0,0,0-.82,4.95,19.69,19.69,0,0,0,.66,4.78,9.45,9.45,0,0,0,2.14,3.79,10.27,10.27,0,0,0,3.3,2.48,11.79,11.79,0,0,0,4.29.82,15.73,15.73,0,0,0,2.8-.33,3.66,3.66,0,0,0,2-1,4.44,4.44,0,0,0,1.32-1.15,8.88,8.88,0,0,0,1-1.32h.16v.83a2.44,2.44,0,0,0,.33,1.15,1.71,1.71,0,0,0,1,.82,4.79,4.79,0,0,0,1.65.33H220V26.76l-1.65.17ZM105.71,24.61a6.05,6.05,0,0,1-1,.83l-1.48,1c-.66.33-1.32.49-2,.82a9.45,9.45,0,0,1-2.31.33,6.86,6.86,0,0,1-2.64-.49A6.52,6.52,0,0,1,94,25.77a6.74,6.74,0,0,1-1.64-2.15,8,8,0,0,1-.66-3.13,8.47,8.47,0,0,1,.82-3.63A5.11,5.11,0,0,1,95,14.39a6.65,6.65,0,0,1,3.63-1,3.35,3.35,0,0,1,1.16.16,3,3,0,0,1,1.15.34,3.42,3.42,0,0,1,.83.49,1.32,1.32,0,0,1,.33.82v1.33h5.11v-3a2.89,2.89,0,0,0-.66-2,4.25,4.25,0,0,0-1.49-1.49l-2-1c-.65-.16-1.48-.33-2.3-.49a7.8,7.8,0,0,0-2-.17,13.09,13.09,0,0,0-5.28,1,9.88,9.88,0,0,0-4,2.64,9.51,9.51,0,0,0-2.47,3.79,14.21,14.21,0,0,0-.83,4.62,14.16,14.16,0,0,0,.83,4.62,11.5,11.5,0,0,0,2.47,3.79,12.83,12.83,0,0,0,4,2.64,13.09,13.09,0,0,0,5.28,1,12.32,12.32,0,0,0,3.46-.5,19.45,19.45,0,0,0,2.8-1,10.15,10.15,0,0,0,2-1.16,15.32,15.32,0,0,0,1.65-1.48l-2.47-4c-.17-.17-.33-.17-.5.16M147.6,23.3a7,7,0,0,1-1.48,2.31A6.38,6.38,0,0,1,144,27.09a7.43,7.43,0,0,1-2.64.49,6.81,6.81,0,0,1-2.63-.49,5,5,0,0,1-2.15-1.48,7,7,0,0,1-1.48-2.31,9.16,9.16,0,0,1,0-5.94,7,7,0,0,1,1.48-2.31,6.24,6.24,0,0,1,2.15-1.48,7.43,7.43,0,0,1,2.63-.5,7,7,0,0,1,4.95,2,5.6,5.6,0,0,1,1.49,2.31,8,8,0,0,1,.49,3,18.75,18.75,0,0,1-.66,3m2.64-11.54a10.59,10.59,0,0,0-4.12-2.47,13,13,0,0,0-5-.83,16.26,16.26,0,0,0-4.95.83,12,12,0,0,0-4.12,2.47,8.81,8.81,0,0,0-2.64,3.79,11.88,11.88,0,0,0-1,4.79,11.26,11.26,0,0,0,1,4.78,11.88,11.88,0,0,0,2.64,3.79,9.52,9.52,0,0,0,4.12,2.48,13,13,0,0,0,4.95.82,15.48,15.48,0,0,0,5-.82,12,12,0,0,0,4.12-2.48,10.7,10.7,0,0,0,2.8-3.79,11.79,11.79,0,0,0,1-4.78,11.31,11.31,0,0,0-1-4.79,10.79,10.79,0,0,0-2.8-3.79"/><path class="cls-2" d="M88.54,40.42h-.77L87.3,41.8h-.76L87,40.42h-.78l.22-.66h.79l.44-1.35h-.79l.2-.65h.82l.46-1.39h.76l-.45,1.39h.76l.46-1.39h.77l-.47,1.39H91l-.19.65H90l-.45,1.35h.83l-.21.66H89.3l-.45,1.38h-.78Zm-.1-2L88,39.76h.76l.45-1.35Z"/><path class="cls-2" d="M92.76,37.86l-.89.92-.66-.69,1.71-1.72h1V41.8H92.77Z"/><path class="cls-2" d="M96.83,39.09a2.75,2.75,0,0,1,2.85-2.81A2.52,2.52,0,0,1,102,37.61l-1,.49a1.47,1.47,0,0,0-1.32-.79,1.79,1.79,0,0,0,0,3.57,1.47,1.47,0,0,0,1.32-.79l1,.48a2.55,2.55,0,0,1-2.32,1.33A2.75,2.75,0,0,1,96.83,39.09Z"/><path class="cls-2" d="M102.66,37.87h1v.53a1.69,1.69,0,0,1,1.25-.62v1a1.3,1.3,0,0,0-1.25.41v2.6h-1Z"/><path class="cls-2" d="M105.35,39.83a2.08,2.08,0,1,1,2.08,2.07A2,2,0,0,1,105.35,39.83Zm3.08,0a1,1,0,1,0-1,1.15A1,1,0,0,0,108.43,39.83Z"/><path class="cls-2" d="M112.9,39.12l-.83,2.68H111l-1.2-3.93h1.08l.73,2.64.86-2.64h.93l.86,2.64.73-2.64H116l-1.2,3.93h-1.1Z"/><path class="cls-2" d="M119.25,41.3a1.54,1.54,0,0,1-1.22.6c-1,0-1.74-.75-1.74-2.06s.74-2.07,1.74-2.07a1.53,1.53,0,0,1,1.22.6v-2h1V41.8h-1Zm0-2.16a1.15,1.15,0,0,0-.9-.45,1.16,1.16,0,0,0,0,2.29,1.15,1.15,0,0,0,.9-.45Z"/><path class="cls-2" d="M121.42,40.56a2.28,2.28,0,0,0,1.36.54c.45,0,.66-.15.66-.4s-.34-.37-.79-.46c-.67-.13-1.54-.3-1.54-1.23,0-.66.57-1.24,1.61-1.24a2.46,2.46,0,0,1,1.58.54l-.41.71a1.61,1.61,0,0,0-1.16-.46c-.38,0-.62.14-.62.36s.31.34.75.43c.67.13,1.58.31,1.58,1.28,0,.73-.61,1.27-1.71,1.27a2.68,2.68,0,0,1-1.76-.61Z"/><path class="cls-2" d="M125,39.83A2.08,2.08,0,1,1,127,41.9,2,2,0,0,1,125,39.83Zm3.09,0a1,1,0,0,0-1-1.14A1.16,1.16,0,0,0,127,41,1,1,0,0,0,128,39.83Z"/><path class="cls-2" d="M132.54,41.3a1.84,1.84,0,0,1-1.39.6,1.13,1.13,0,0,1-1.27-1.24V37.87h1v2.38c0,.55.28.73.72.73a1.18,1.18,0,0,0,.9-.45V37.87h1V41.8h-1Z"/><path class="cls-2" d="M134.6,37.87h1v.53a1.69,1.69,0,0,1,1.26-.62v1a1.43,1.43,0,0,0-.29,0,1.32,1.32,0,0,0-1,.44v2.6h-1Z"/><path class="cls-2" d="M139.36,37.77a1.81,1.81,0,0,1,1.56.72l-.68.62a1,1,0,0,0-.83-.42,1,1,0,0,0-1.06,1.14A1.06,1.06,0,0,0,139.42,41a1,1,0,0,0,.83-.43l.67.63a1.83,1.83,0,0,1-1.55.72,2.07,2.07,0,1,1,0-4.13Z"/><path class="cls-2" d="M143.38,37.77a2,2,0,0,1,2,2.17v.22h-2.92a1.06,1.06,0,0,0,1.13.92,1.62,1.62,0,0,0,1.05-.39l.46.66a2.41,2.41,0,0,1-1.62.55,2.07,2.07,0,1,1-.07-4.13Zm-1,1.69h1.94a.91.91,0,0,0-1-.87A1,1,0,0,0,142.41,39.46Z"/><path class="cls-2" d="M148.81,41.3a1.53,1.53,0,0,1-1.22.6c-1,0-1.74-.75-1.74-2.06s.74-2.07,1.74-2.07a1.53,1.53,0,0,1,1.22.6v-2h1V41.8h-1Zm0-2.16a1.15,1.15,0,0,0-.9-.45,1.16,1.16,0,0,0,0,2.29,1.15,1.15,0,0,0,.9-.45Z"/><path class="cls-2" d="M153.25,40.16a2.38,2.38,0,0,0,1.73.73c.63,0,.94-.3.94-.61s-.47-.55-1.1-.69c-.89-.21-2-.45-2-1.67,0-.9.78-1.64,2.06-1.64A3,3,0,0,1,157,37l-.64.85a2.31,2.31,0,0,0-1.56-.6c-.52,0-.8.23-.8.56s.46.48,1.09.63c.89.2,2,.47,2,1.68,0,1-.71,1.74-2.18,1.74a3.13,3.13,0,0,1-2.3-.86Z"/><path class="cls-2" d="M159.64,37.77a2,2,0,0,1,2,2.17v.22h-2.93a1.07,1.07,0,0,0,1.14.92,1.64,1.64,0,0,0,1.05-.39l.45.66a2.39,2.39,0,0,1-1.62.55,2.07,2.07,0,1,1-.06-4.13Zm-1,1.69h1.94a.92.92,0,0,0-1-.87.94.94,0,0,0-1,.87Z"/><path class="cls-2" d="M164.19,37.77a1.81,1.81,0,0,1,1.56.72l-.68.62a1,1,0,0,0-.83-.42,1.15,1.15,0,0,0,0,2.29,1,1,0,0,0,.83-.42l.68.62a1.81,1.81,0,0,1-1.56.72,2.07,2.07,0,1,1,0-4.13Z"/><path class="cls-2" d="M169.08,41.3a1.82,1.82,0,0,1-1.38.6,1.12,1.12,0,0,1-1.27-1.24V37.87h1v2.38a.64.64,0,0,0,.73.73,1.15,1.15,0,0,0,.89-.45V37.87h1V41.8h-1Z"/><path class="cls-2" d="M171.14,37.87h1v.53a1.65,1.65,0,0,1,1.25-.62v1a1.33,1.33,0,0,0-.28,0,1.31,1.31,0,0,0-1,.44v2.6h-1Z"/><path class="cls-2" d="M174,36.67a.62.62,0,1,1,.62.62h0A.62.62,0,0,1,174,36.67Zm.1,1.19h1V41.8h-1Z"/><path class="cls-2" d="M176.34,40.82v-2h-.65v-.9h.65V36.79h1v1.08h.8v.9h-.8v1.78c0,.24.13.43.36.43a.55.55,0,0,0,.36-.12l.22.78a1.25,1.25,0,0,1-.86.26A1,1,0,0,1,176.34,40.82Z"/><path class="cls-2" d="M179.23,42.48a.53.53,0,0,0,.55-.29l.15-.33-1.6-4h1.11l1,2.74,1-2.74h1.12l-1.85,4.58a1.44,1.44,0,0,1-1.49.95,2.24,2.24,0,0,1-.52-.06l.16-.93A.88.88,0,0,0,179.23,42.48Z"/><path class="cls-2" d="M184.92,39.09a2.75,2.75,0,0,1,2.85-2.81,2.52,2.52,0,0,1,2.32,1.33l-1,.49a1.46,1.46,0,0,0-1.32-.79,1.79,1.79,0,0,0,0,3.57,1.47,1.47,0,0,0,1.32-.79l1,.48a2.54,2.54,0,0,1-2.32,1.33A2.75,2.75,0,0,1,184.92,39.09Z"/><path class="cls-2" d="M190.5,39.83a2.09,2.09,0,1,1,2.08,2.07A2,2,0,0,1,190.5,39.83Zm3.09,0a1,1,0,1,0-1,1.15,1,1,0,0,0,1-1.15Z"/><path class="cls-2" d="M200.31,39.32c0-.37-.16-.63-.58-.63a1,1,0,0,0-.82.46V41.8h-1V39.32c0-.37-.16-.63-.59-.63a1,1,0,0,0-.81.46V41.8h-1V37.87h1v.51a1.7,1.7,0,0,1,1.29-.61,1,1,0,0,1,1.09.72,1.67,1.67,0,0,1,1.35-.72A1.05,1.05,0,0,1,201.36,39V41.8h-1.05Z"/><path class="cls-2" d="M202.38,43.3V37.87h1v.49a1.55,1.55,0,0,1,1.22-.59c1,0,1.74.75,1.74,2.06s-.73,2.07-1.74,2.07a1.53,1.53,0,0,1-1.22-.6v2Zm1.92-4.61a1.18,1.18,0,0,0-.89.45v1.39a1.18,1.18,0,0,0,.89.45,1.16,1.16,0,0,0,0-2.29Z"/><path class="cls-2" d="M209.51,41.39a1.64,1.64,0,0,1-1.25.51,1.32,1.32,0,0,1-1.37-1.31,1.24,1.24,0,0,1,1.37-1.25,1.59,1.59,0,0,1,1.25.48v-.55c0-.39-.35-.66-.87-.66a1.65,1.65,0,0,0-1.15.47l-.39-.69a2.55,2.55,0,0,1,1.72-.62c.9,0,1.72.36,1.72,1.49V41.8h-1Zm0-1a1.06,1.06,0,0,0-.84-.35c-.4,0-.74.22-.74.6s.34.58.74.58a1.08,1.08,0,0,0,.84-.34Z"/><path class="cls-2" d="M214.22,39.42a.63.63,0,0,0-.72-.73,1.13,1.13,0,0,0-.9.46V41.8h-1V37.87h1v.51a1.81,1.81,0,0,1,1.38-.61A1.15,1.15,0,0,1,215.26,39V41.8h-1Z"/><path class="cls-2" d="M216.63,42.48a.52.52,0,0,0,.54-.29l.15-.33-1.6-4h1.11l1,2.73,1-2.73H220l-1.85,4.58a1.43,1.43,0,0,1-1.49.95,2.22,2.22,0,0,1-.51-.06l.15-.93A1,1,0,0,0,216.63,42.48Z"/></g></g></g></g></svg>